<?xml version="1.0" encoding="UTF-8"?>
<!DOCTYPE svg PUBLIC "-//W3C//DTD SVG 1.1//EN" "http://www.w3.org/Graphics/SVG/1.1/DTD/svg11.dtd">
<!-- Creator: CorelDRAW 2017 -->
<svg xmlns="http://www.w3.org/2000/svg" xml:space="preserve" width="250px" height="80px" version="1.1" style="shape-rendering:geometricPrecision; text-rendering:geometricPrecision; image-rendering:optimizeQuality; fill-rule:evenodd; clip-rule:evenodd"
viewBox="0 0 250 80"
 xmlns:xlink="http://www.w3.org/1999/xlink">
 <defs>
  <style type="text/css">
   <![CDATA[
    .fil0 {fill:#9C27B0;fill-rule:nonzero}
   ]]>
  </style>
 </defs>
 <g id="Layer_x0020_1">
  <metadata id="CorelCorpID_0Corel-Layer"/>
  <g id="_1401144519712">
   <path class="fil0" d="M76.69 50.42l-6.71 0 0 17.74 2.04 0 0 -7.55 3.96 0 0 -2.87 -3.96 0 0 -4.42 4.67 0 0 -2.9zm10.9 17.88c2.73,0 3.92,-1.64 3.92,-5.29l0 -7.5c0,-3.75 -1.15,-5.29 -3.92,-5.29 -2.77,0 -3.82,1.54 -3.82,5.29l0 7.5c0,3.65 1.1,5.29 3.82,5.29zm0 -2.81c-1.49,0 -1.77,-0.97 -1.77,-2.65l0 -7.17c0,-1.61 0.28,-2.65 1.77,-2.65 1.6,0 1.86,1.04 1.86,2.65l0 7.17c0,1.68 -0.37,2.65 -1.86,2.65zm17.01 -2.76c0,1.68 -0.58,2.76 -1.8,2.76 -1.22,0 -1.7,-1.08 -1.7,-2.76l0 -12.28 -2.06 0 0 12.44c0,3.66 1.34,5.41 3.76,5.41 2.41,0 3.85,-1.75 3.85,-5.41l0 -12.44 -2.05 0 0 12.28zm17.29 5.4l-2.52 -6.73c1.39,-0.69 1.98,-2.12 1.98,-4.74l0 -0.92c0,-3.75 -1.29,-5.32 -4.06,-5.32l-2.89 0 0 17.71 2.05 0 0 -6.23 0.76 0 2.28 6.23 2.4 0zm-5.45 -9.15l0 -5.63 0.88 0c1.59,0 1.87,0.87 1.87,2.55l0 0.6c0,1.68 -0.41,2.48 -1.9,2.48l-0.85 0zm20.8 9.15l-4.08 -8.85 3.74 -8.86 -2.4 0 -3.01 7.46 -0.55 0 0 -7.46 -2.05 0 0 17.71 2.04 0 0 -7.1 0.58 0 3.23 7.1 2.5 0zm6.82 -17.71l0 17.74 6.81 0 0 -2.9 -4.75 0 0 -4.67 3.87 0 0 -2.85 -3.87 0 0 -4.55 4.54 0 0 -2.77 -6.6 0zm21.61 17.71l-2.52 -6.73c1.39,-0.69 1.98,-2.12 1.98,-4.74l0 -0.92c0,-3.75 -1.29,-5.32 -4.06,-5.32l-2.89 0 0 17.71 2.05 0 0 -6.23 0.76 0 2.28 6.23 2.4 0zm-5.45 -9.15l0 -5.63 0.88 0c1.59,0 1.87,0.87 1.87,2.55l0 0.6c0,1.68 -0.41,2.48 -1.9,2.48l-0.85 0zm17.48 -3.93l2.07 0c-0.19,-3.54 -1.56,-4.72 -3.63,-4.72 -2.36,0 -3.67,1.73 -3.67,5.04 0,3.66 1.37,4.65 2.67,4.9 1.22,0.25 2.83,0.25 2.83,2.35 0,2 -0.57,2.8 -1.8,2.8 -1.31,0 -1.7,-0.74 -1.75,-2.09l-2.07 0c0,2.85 0.91,4.99 3.77,4.99 2.76,0 3.9,-1.73 3.9,-5.82 0,-3.54 -1.26,-4.37 -2.59,-4.69 -1.74,-0.42 -2.89,-0.23 -2.89,-2.46 0,-1.68 0.47,-2.23 1.6,-2.23 0.99,0 1.5,0.43 1.56,1.93z"/>
   <path class="fil0" d="M211.38 42.55c-2.81,-2.32 -7.46,-4.97 -12.37,-7.07 -7,-2.99 -13.91,-4.76 -22.46,-5.76 -5.23,-0.61 -17.4,-0.4 -26.32,0.45 -12.57,1.19 -23.32,1.09 -32.26,-0.32 -3.67,-0.57 -12.15,-2.53 -11.91,-2.74 0.08,-0.07 2.21,0.01 4.74,0.18 8.52,0.56 13.88,0.65 19.85,0.34 6.8,-0.35 15.68,-1.14 16.32,-1.44 0.72,-0.35 -7.09,-4.74 -12.95,-7.28 -6.31,-2.74 -11.26,-3.93 -18.69,-4.48 -5.3,-0.39 -10.59,-0.1 -19.51,1.06 -7.51,0.98 -20.07,2.42 -20.86,2.39 -1.91,-0.07 20.37,-4.63 27.12,-5.54 5.33,-0.73 14.84,-0.88 19.13,-0.32 10.39,1.36 20.24,5.1 31.02,11.77l2.48 1.53 9.39 0.11c9.95,0.11 12.22,0.32 18.71,1.77 11.09,2.48 19.59,6.58 26.38,12.72 2.43,2.21 4.49,4.25 4.23,4.22 -0.06,0 -0.98,-0.72 -2.04,-1.59zm-105.93 -1.84c-6.56,-0.26 -13.97,-0.88 -20.55,-1.73 -7.06,-0.91 -6.6,-0.76 -7.68,-2.54 -1.93,-3.19 -6.29,-6.27 -11.23,-7.92 -3.79,-1.27 -6.87,-1.77 -11.21,-1.8 -2.97,-0.02 -3.39,-0.07 -2.46,-0.31 1.91,-0.49 10.67,-0.11 13.64,0.59 4.31,1.01 7.67,2.67 10.46,5.15 1.34,1.19 2.72,2.5 3.05,2.92 0.59,0.73 0.84,0.79 5.43,1.21 8.09,0.75 14.7,1.03 23.43,1l8.36 -0.02 -3.42 -0.53c-9.01,-1.42 -14.79,-3.1 -28.82,-8.39 -10.13,-3.83 -15.66,-5.21 -23.62,-5.9 -5.7,-0.5 -15.19,0.03 -23.92,1.32 -1.92,0.28 4.46,-1.52 8.02,-2.27 5.43,-1.13 9.79,-1.59 15.3,-1.59 9.83,0.01 14.58,1.02 29.97,6.42 13.65,4.79 22.27,6.93 33.23,8.26 12.43,1.52 21.83,1.36 35.95,-0.6 14.89,-2.06 24.19,-1.58 34.46,1.8 1.79,0.58 3.19,1.11 3.13,1.17 -0.07,0.05 -1.25,-0.15 -2.64,-0.46 -5.2,-1.17 -9.35,-1.59 -15.53,-1.58 -6.49,0 -7.86,0.15 -20.86,2.27 -13.93,2.28 -21.45,3.06 -34.03,3.55 -8.23,0.31 -9.84,0.31 -18.46,-0.02z"/>
  </g>
 </g>
</svg>
